<?xml version="1.0" encoding="iso-8859-1"?>
<!-- Generator: Adobe Illustrator 17.1.0, SVG Export Plug-In . SVG Version: 6.00 Build 0)  -->
<!DOCTYPE svg PUBLIC "-//W3C//DTD SVG 1.1//EN" "http://www.w3.org/Graphics/SVG/1.1/DTD/svg11.dtd">
<svg version="1.1" id="Layer_1" xmlns="http://www.w3.org/2000/svg" xmlns:xlink="http://www.w3.org/1999/xlink" x="0px" y="0px"
	 viewBox="0 0 42 42" style="enable-background:new 0 0 42 42;" xml:space="preserve">
<g>
	<defs>
		<rect id="SVGID_1_" width="42" height="42"/>
	</defs>
	<clipPath id="SVGID_2_">
		<use xlink:href="#SVGID_1_"  style="overflow:visible;"/>
	</clipPath>
	<path style="clip-path:url(#SVGID_2_);fill:#504d4f;" d="M8,16c-4.411,0-8-3.589-8-8s3.589-8,8-8s8,3.589,8,8S12.411,16,8,16 M8,4
		C5.794,4,4,5.794,4,8c0,2.206,1.794,4,4,4s4-1.794,4-4C12,5.794,10.206,4,8,4"/>
	<path style="clip-path:url(#SVGID_2_);fill:#504d4f;" d="M34,42c-4.411,0-8-3.589-8-8s3.589-8,8-8s8,3.589,8,8S38.411,42,34,42
		 M34,30c-2.206,0-4,1.794-4,4s1.794,4,4,4c2.206,0,4-1.794,4-4S36.206,30,34,30"/>
	<path style="clip-path:url(#SVGID_2_);fill:#504d4f;" d="M33,42C21.937,42,2.216,22.458,0.027,9.329
		c-0.181-1.09,0.555-2.12,1.644-2.302c1.097-0.181,2.12,0.557,2.302,1.644C5.8,19.635,23.976,38,33,38c1.104,0,2,0.896,2,2
		S34.104,42,33,42"/>
</g>
</svg>
