<?xml version="1.0" encoding="iso-8859-1"?>
<!-- Generator: Adobe Illustrator 17.1.0, SVG Export Plug-In . SVG Version: 6.00 Build 0)  -->
<!DOCTYPE svg PUBLIC "-//W3C//DTD SVG 1.1//EN" "http://www.w3.org/Graphics/SVG/1.1/DTD/svg11.dtd">
<svg version="1.1" id="Layer_1" xmlns="http://www.w3.org/2000/svg" xmlns:xlink="http://www.w3.org/1999/xlink" x="0px" y="0px"
	 viewBox="0 0 122.676 27.1" style="enable-background:new 0 0 122.676 27.1;" xml:space="preserve">
<g>
	<defs>
		<rect id="SVGID_1_" y="0" width="122.676" height="27.1"/>
	</defs>
	<clipPath id="SVGID_2_">
		<use xlink:href="#SVGID_1_"  style="overflow:visible;"/>
	</clipPath>
	<path style="clip-path:url(#SVGID_2_);fill:#CC404B;" d="M118.719,7.722c2.193,0,3.957-1.621,3.957-3.813
		c0-2.241-1.764-3.909-3.957-3.909c-2.24,0-4.004,1.668-4.004,3.909C114.715,6.101,116.479,7.722,118.719,7.722"/>
	<path style="clip-path:url(#SVGID_2_);fill-rule:evenodd;clip-rule:evenodd;fill:#FFFFFF;" d="M75.503,20.858l-4.251-0.034
		c0.214,2.024,1.076,3.743,2.813,4.878c0.797,0.52,1.719,0.853,2.643,1.068c1.04,0.243,2.114,0.343,3.182,0.328
		c1.925-0.026,4.214-0.451,5.821-1.562c1.485-1.027,2.183-2.486,2.183-4.279c0-2.778-1.772-4.183-4.296-4.84
		c-0.743-0.193-1.51-0.277-2.273-0.35c-0.616-0.06-1.233-0.11-1.846-0.194c-0.575-0.079-1.149-0.185-1.694-0.384
		c-0.797-0.289-1.502-0.821-1.502-1.744c0-0.103,0.005-0.206,0.025-0.307c0.097-0.513,0.457-0.893,0.904-1.137
		c0.616-0.337,1.519-0.425,2.214-0.425c1.515,0,3.62,0.508,3.913,2.263l4.234-0.033c-0.218-1.951-1.136-3.483-2.869-4.463
		c-1.48-0.836-3.53-1.129-5.213-1.129c-2.434,0-5.398,0.664-6.818,2.837c-0.558,0.854-0.805,1.831-0.805,2.846
		c0,2.587,1.609,4.117,3.981,4.823c0.825,0.245,1.685,0.346,2.538,0.433c0.67,0.069,1.342,0.123,2.011,0.213
		c0.611,0.083,1.223,0.191,1.805,0.405c0.724,0.266,1.352,0.766,1.352,1.6c0,0.144-0.017,0.293-0.06,0.431
		c-0.019,0.059-0.042,0.117-0.069,0.174c-0.258,0.535-0.839,0.835-1.381,1.004c-0.669,0.21-1.385,0.274-2.083,0.27
		c-0.58-0.003-1.161-0.057-1.73-0.172c-0.453-0.093-0.933-0.224-1.329-0.468C76.135,22.438,75.687,21.726,75.503,20.858
		 M24.828,26.488h4.778V1.491h-4.778V26.488z M58.313,1.53h-4.662v24.997h4.662v-3.7l3.16-3.372l5.152,7.072h5.273l-7.546-10.143
		l6.844-7.299h-5.647l-7.236,8.029V1.53z M90.078,6.192h4.662V1.53h-4.662V6.192z M90.078,26.527h4.662V9.086h-4.662V26.527z
		 M7.929,15.095V5.89h4.475c1.816,0,3.802,0.575,4.822,2.193c0.415,0.658,0.608,1.409,0.608,2.185c0,1.066-0.3,2.095-0.956,2.944
		c-1.066,1.38-2.782,1.939-4.477,1.923L7.929,15.095z M0,15.098v4.399h3.041v6.991h4.888v-6.991h3.948
		c3.419,0,7.019-1.036,9.125-3.905c1.143-1.555,1.644-3.407,1.644-5.324c0-1.893-0.506-3.722-1.665-5.238
		c-1.979-2.586-5.251-3.539-8.389-3.539H3.041v13.606L0,15.098z M101.26,9.085h-3.692v17.442h4.662v-7.55
		c0-0.42-0.003-0.84,0.006-1.26c0.024-1.055,0.121-2.189,0.639-3.131c0.407-0.741,1.019-1.246,1.797-1.566
		c1.25-0.514,3.017-0.438,4.162,0.307c1.366,0.888,1.777,2.508,1.777,4.047v9.153h4.662v-9.604c0-2.567-0.79-5.177-2.852-6.835
		c-0.796-0.641-1.725-1.083-2.716-1.328c-1.27-0.313-2.596-0.331-3.868-0.021c-1.165,0.284-2.245,0.835-3.165,1.603l-0.238,0.197
		L101.26,9.085z M41.619,12.35c1.388,0,2.576,0.667,3.465,1.705c0.854,0.998,1.266,2.334,1.282,3.635
		c0.016,1.312-0.37,2.671-1.214,3.693c-0.905,1.095-2.168,1.608-3.575,1.608c-2.882,0-4.942-2.4-4.942-5.205
		C36.635,14.989,38.694,12.35,41.619,12.35 M47.077,26.488h3.691V9.085h-3.691l-1.185,1.468l-0.24-0.231
		c-1.204-1.162-2.895-1.715-4.544-1.78c-0.904-0.035-1.815,0.073-2.686,0.316c-0.891,0.248-1.743,0.639-2.505,1.165
		c-2.502,1.732-3.906,4.752-3.906,7.763c0,2.978,1.37,5.807,3.82,7.531c1.433,1.008,3.129,1.547,4.882,1.547
		c1.002,0,2.007-0.135,2.969-0.418c0.774-0.228,1.528-0.552,2.204-0.994l0.231-0.151L47.077,26.488z"/>
</g>
</svg>
